<svg width="168" height="116" viewBox="0 0 168 116" fill="none" xmlns="http://www.w3.org/2000/svg">
<path d="M1.57617 112.107V97.2295H15.6699L13.7148 99.1631H3.85352V103.589H15.1436L13.6504 105.522H3.85352V112.107H1.57617ZM31.9336 112.107L30.1934 109.014H18.5596L16.8086 112.107H14.252L22.6846 97.2295H26.0361L34.4473 112.107H31.9336ZM29.1406 107.08L24.6934 99.1631H24.1348L19.623 107.08H29.1406ZM34.5332 107.306H36.7568C36.7568 107.542 36.7604 107.685 36.7676 107.735C36.7819 108.552 36.8356 109.092 36.9287 109.357C37.029 109.615 37.2367 109.812 37.5518 109.948C38.0674 110.17 39.8184 110.281 42.8047 110.281C44.9746 110.281 46.5286 110.174 47.4668 109.959C48.3262 109.773 48.7559 109.082 48.7559 107.886C48.7559 107.263 48.6842 106.804 48.541 106.511C48.4049 106.21 48.1794 106.002 47.8643 105.888C47.5062 105.766 47.0049 105.694 46.3604 105.673C45.7158 105.651 43.5853 105.641 39.9688 105.641C38.7298 105.641 37.7308 105.526 36.9717 105.297C36.2126 105.061 35.6289 104.681 35.2207 104.158C34.7409 103.557 34.501 102.651 34.501 101.44C34.501 100.094 34.8841 99.113 35.6504 98.4971C36.0228 98.1891 36.4346 97.9564 36.8857 97.7988C37.3441 97.6413 37.9743 97.516 38.7764 97.4229C40.0798 97.2653 41.6266 97.1865 43.417 97.1865C45.0856 97.1865 46.3818 97.2725 47.3057 97.4443C48.2295 97.6162 48.9528 97.917 49.4756 98.3467C49.9124 98.6976 50.2096 99.1058 50.3672 99.5713C50.5247 100.03 50.6107 100.767 50.625 101.784H48.3477C48.3477 101.598 48.3477 101.487 48.3477 101.451C48.3477 100.749 48.2725 100.28 48.1221 100.044C47.9144 99.7002 47.4417 99.4495 46.7041 99.292C45.9665 99.1344 44.8421 99.0557 43.3311 99.0557C41.4404 99.0557 40.0332 99.1273 39.1094 99.2705C38.1927 99.4066 37.5768 99.625 37.2617 99.9258C36.9681 100.227 36.8213 100.731 36.8213 101.44C36.8213 102.092 36.8929 102.547 37.0361 102.805C37.1865 103.062 37.4694 103.256 37.8848 103.385C38.5293 103.592 39.7897 103.703 41.666 103.718C42.3105 103.725 43.904 103.732 46.4463 103.739C47.5205 103.746 48.3512 103.854 48.9385 104.062C49.5329 104.262 50.0163 104.609 50.3887 105.104C50.847 105.719 51.0762 106.593 51.0762 107.725C51.0762 108.806 50.89 109.658 50.5176 110.281C50.0592 111.033 49.2214 111.535 48.0039 111.785C46.7865 112.036 44.6344 112.161 41.5479 112.161C39.915 112.161 38.7048 112.111 37.917 112.011C37.1292 111.91 36.499 111.728 36.0264 111.463C35.4535 111.133 35.0596 110.725 34.8447 110.238C34.6299 109.744 34.5225 109.021 34.5225 108.068C34.5225 108.025 34.526 107.771 34.5332 107.306ZM51.7422 97.2295H68.7256V99.1631H61.3887V112.107H59.1113V99.1631H51.7422V97.2295ZM84.1836 112.107L82.4434 109.014H70.8096L69.0586 112.107H66.502L74.9346 97.2295H78.2861L86.6973 112.107H84.1836ZM81.3906 107.08L76.9434 99.1631H76.3848L71.873 107.08H81.3906ZM87.5781 112.107V97.2295H97.8584C100.114 97.2295 101.704 97.3226 102.628 97.5088C103.774 97.7451 104.644 98.3538 105.238 99.335C105.539 99.8219 105.75 100.474 105.872 101.29C105.994 102.099 106.055 103.224 106.055 104.663C106.055 106.468 105.894 107.9 105.571 108.96C105.056 110.621 103.946 111.599 102.241 111.893C101.389 112.036 99.9782 112.107 98.0088 112.107H87.5781ZM89.8555 110.174H97.9229C99.3265 110.174 100.193 110.167 100.522 110.152C100.859 110.131 101.224 110.074 101.618 109.98C102.363 109.801 102.9 109.3 103.229 108.477C103.566 107.646 103.734 106.346 103.734 104.577C103.734 102.285 103.444 100.782 102.864 100.065C102.657 99.8076 102.381 99.6143 102.037 99.4854C101.701 99.3564 101.224 99.2633 100.608 99.2061C100.243 99.1774 99.3158 99.1631 97.8262 99.1631H89.8555V110.174ZM107.967 97.2295H112.146L119.998 109.497L127.722 97.2295H131.922V112.107H129.645V99.2598H129.097L120.911 112.107H119.106L110.835 99.2598H110.244V112.107H107.967V97.2295ZM134.113 97.2295H136.391V112.107H134.113V97.2295ZM138.582 97.2295H142.084L154.932 110.088H155.136V97.2295H157.413V112.107H153.857L141.042 99.2812H140.859V112.107H138.582V97.2295Z" fill="white"/>
<path fill-rule="evenodd" clip-rule="evenodd" d="M116.311 63.8296C114.954 59.6026 114.218 54.2501 113.551 49.1043C82.6194 62.3134 46.4436 71.7551 27.5395 69.6875C10.2223 67.8498 4.19751 56.0649 13.0516 41.0409C19.7899 29.5777 50.6751 -3.27273 64.7037 0.265015C75.6506 3.0217 70.0857 17.2186 71.6266 25.5805C75.0992 22.8928 81.7916 15.7484 84.2294 13.5201C108.308 -8.51044 114.77 19.1713 116.495 39.8005C134.709 32.748 151.934 24.2022 160.696 15.4268C164.376 11.7282 166.791 8.32831 164.307 3.32033L163.387 1.50554L165.273 2.5163C170.332 6.62836 166.607 13.8876 163.41 17.8159C155.361 27.763 137.561 38.4911 116.932 47.6111C116.978 48.4841 117.001 49.311 117.024 50.0921C117.162 55.0771 117.277 58.8905 116.311 63.8296ZM112.378 41.3396V41.2707C111.39 35.4817 107.204 9.2472 98.0506 12.5782C87.3107 16.5065 75.2827 42.2585 65.8077 33.3223C61.3001 29.0724 62.2662 18.4591 62.2662 12.6471C62.2662 11.8201 62.3123 10.7634 62.0823 9.89041C53.0213 11.2688 31.2654 35.2978 26.091 42.8098C24.4581 45.176 18.9157 53.515 21.5375 56.065C27.9998 62.3134 55.8962 57.3744 64.2903 55.6285C76.1111 53.1704 94.4633 48.0016 112.378 41.3396ZM61.8985 9.43096C61.8985 9.43096 61.8753 9.40801 61.8753 9.38504H61.8521C61.8521 9.40801 61.8755 9.43096 61.8985 9.43096ZM70.1317 26.5224C70.0857 26.5454 70.0627 26.5454 70.0397 26.5454C70.0627 26.5454 70.0857 26.5454 70.1317 26.5224Z" fill="white"/>
</svg>
