<svg width="413" height="105" viewBox="0 0 413 105" fill="none" xmlns="http://www.w3.org/2000/svg">
<path fill-rule="evenodd" clip-rule="evenodd" d="M145.493 92.4416C143.653 86.7107 142.656 79.4537 141.752 72.4769C99.8139 90.386 50.7664 103.187 25.1361 100.384C1.65721 97.8922 -6.51126 81.9142 5.49321 61.5446C14.6291 46.0026 56.5035 1.46368 75.5236 6.26019C90.3655 9.99773 82.8206 29.246 84.9097 40.5832C89.6179 36.9391 98.6916 27.2527 101.997 24.2315C134.643 -5.63766 143.404 31.8935 145.742 59.8628C170.437 50.3009 193.791 38.7145 205.671 26.8167C210.66 21.8021 213.934 17.1925 210.567 10.4026L209.319 7.94211L211.876 9.3125C218.736 14.8877 213.685 24.7299 209.351 30.0559C198.438 43.5422 174.304 58.0875 146.335 70.4525C146.398 71.636 146.429 72.7572 146.46 73.8162C146.647 80.5749 146.803 85.7452 145.493 92.4416ZM140.162 61.9495V61.8561C138.821 54.0073 133.145 18.4383 120.736 22.9545C106.174 28.2805 89.8667 63.1954 77.0204 51.0795C70.909 45.3175 72.2189 30.9279 72.2189 23.0479C72.2189 21.9266 72.2813 20.494 71.9696 19.3104C59.6845 21.1792 30.1877 53.758 23.1721 63.9428C20.9583 67.1509 13.4438 78.4571 16.9984 81.9143C25.7601 90.386 63.5823 83.6896 74.9631 81.3225C90.9899 77.9898 115.872 70.9819 140.162 61.9495ZM71.7202 18.6875C71.7202 18.6875 71.6888 18.6563 71.6888 18.6252H71.6574C71.6574 18.6563 71.6891 18.6875 71.7202 18.6875ZM82.8829 41.8602C82.8205 41.8913 82.7894 41.8914 82.7582 41.8914C82.7894 41.8914 82.8205 41.8913 82.8829 41.8602Z" fill="#007046"/>
<path fill-rule="evenodd" clip-rule="evenodd" d="M201.836 6.19813C203.582 6.19813 204.953 4.79646 204.953 3.11457C204.953 1.43268 203.582 0 201.836 0C200.121 0 198.718 1.40153 198.718 3.11457C198.749 4.79646 200.121 6.19813 201.836 6.19813Z" fill="white"/>
<path d="M123.576 101.107V86.2295H137.67L135.715 88.1631H125.854V92.5889H137.144L135.65 94.5225H125.854V101.107H123.576ZM170.434 101.107L168.693 98.0137H157.06L155.309 101.107H152.752L161.185 86.2295H164.536L172.947 101.107H170.434ZM167.641 96.0801L163.193 88.1631H162.635L158.123 96.0801H167.641ZM189.533 96.3057H191.757C191.757 96.542 191.76 96.6852 191.768 96.7354C191.782 97.5518 191.836 98.0924 191.929 98.3574C192.029 98.6152 192.237 98.8122 192.552 98.9482C193.067 99.1702 194.818 99.2812 197.805 99.2812C199.975 99.2812 201.529 99.1738 202.467 98.959C203.326 98.7728 203.756 98.0817 203.756 96.8857C203.756 96.2627 203.684 95.8044 203.541 95.5107C203.405 95.21 203.179 95.0023 202.864 94.8877C202.506 94.766 202.005 94.6943 201.36 94.6729C200.716 94.6514 198.585 94.6406 194.969 94.6406C193.73 94.6406 192.731 94.526 191.972 94.2969C191.213 94.0605 190.629 93.681 190.221 93.1582C189.741 92.5566 189.501 91.6507 189.501 90.4404C189.501 89.0941 189.884 88.113 190.65 87.4971C191.023 87.1891 191.435 86.9564 191.886 86.7988C192.344 86.6413 192.974 86.516 193.776 86.4229C195.08 86.2653 196.627 86.1865 198.417 86.1865C200.086 86.1865 201.382 86.2725 202.306 86.4443C203.229 86.6162 203.953 86.917 204.476 87.3467C204.912 87.6976 205.21 88.1058 205.367 88.5713C205.525 89.0296 205.611 89.7673 205.625 90.7842H203.348C203.348 90.598 203.348 90.487 203.348 90.4512C203.348 89.7493 203.272 89.2803 203.122 89.0439C202.914 88.7002 202.442 88.4495 201.704 88.292C200.966 88.1344 199.842 88.0557 198.331 88.0557C196.44 88.0557 195.033 88.1273 194.109 88.2705C193.193 88.4066 192.577 88.625 192.262 88.9258C191.968 89.2266 191.821 89.7314 191.821 90.4404C191.821 91.0921 191.893 91.5469 192.036 91.8047C192.187 92.0625 192.469 92.2559 192.885 92.3848C193.529 92.5924 194.79 92.7035 196.666 92.7178C197.311 92.7249 198.904 92.7321 201.446 92.7393C202.521 92.7464 203.351 92.8538 203.938 93.0615C204.533 93.262 205.016 93.6094 205.389 94.1035C205.847 94.7194 206.076 95.5931 206.076 96.7246C206.076 97.806 205.89 98.6582 205.518 99.2812C205.059 100.033 204.221 100.535 203.004 100.785C201.786 101.036 199.634 101.161 196.548 101.161C194.915 101.161 193.705 101.111 192.917 101.011C192.129 100.91 191.499 100.728 191.026 100.463C190.453 100.133 190.06 99.7253 189.845 99.2383C189.63 98.7441 189.522 98.0208 189.522 97.0684C189.522 97.0254 189.526 96.7712 189.533 96.3057ZM223.242 86.2295H240.226V88.1631H232.889V101.107H230.611V88.1631H223.242V86.2295ZM272.184 101.107L270.443 98.0137H258.81L257.059 101.107H254.502L262.935 86.2295H266.286L274.697 101.107H272.184ZM269.391 96.0801L264.943 88.1631H264.385L259.873 96.0801H269.391ZM292.078 101.107V86.2295H302.358C304.614 86.2295 306.204 86.3226 307.128 86.5088C308.274 86.7451 309.144 87.3538 309.738 88.335C310.039 88.8219 310.25 89.4736 310.372 90.29C310.494 91.0993 310.555 92.2236 310.555 93.6631C310.555 95.4678 310.394 96.9001 310.071 97.96C309.556 99.6214 308.446 100.599 306.741 100.893C305.889 101.036 304.478 101.107 302.509 101.107H292.078ZM294.355 99.1738H302.423C303.826 99.1738 304.693 99.1667 305.022 99.1523C305.359 99.1309 305.724 99.0736 306.118 98.9805C306.863 98.8014 307.4 98.3001 307.729 97.4766C308.066 96.6458 308.234 95.346 308.234 93.5771C308.234 91.2855 307.944 89.7816 307.364 89.0654C307.157 88.8076 306.881 88.6143 306.537 88.4854C306.201 88.3564 305.724 88.2633 305.108 88.2061C304.743 88.1774 303.816 88.1631 302.326 88.1631H294.355V99.1738ZM328.967 86.2295H333.146L340.998 98.4971L348.722 86.2295H352.922V101.107H350.645V88.2598H350.097L341.911 101.107H340.106L331.835 88.2598H331.244V101.107H328.967V86.2295ZM371.613 86.2295H373.891V101.107H371.613V86.2295ZM392.582 86.2295H396.084L408.932 99.0879H409.136V86.2295H411.413V101.107H407.857L395.042 88.2812H394.859V101.107H392.582V86.2295Z" fill="white"/>
</svg>
