<svg width="213" height="45" viewBox="0 0 213 45" fill="none" xmlns="http://www.w3.org/2000/svg">
<path fill-rule="evenodd" clip-rule="evenodd" d="M62.4163 39.6575C61.6271 37.1989 61.1991 34.0857 60.8112 31.0926C42.82 38.7756 21.7787 44.2672 10.7833 43.0647C0.710942 41.9958 -2.79332 35.1412 2.35658 26.4027C6.27585 19.7352 24.2399 0.628063 32.3995 2.68576C38.7667 4.28916 35.5299 12.5466 36.4261 17.4103C38.446 15.847 42.3385 11.6915 43.7564 10.3954C57.7615 -2.4184 61.52 13.6824 62.5233 25.6812C73.1173 21.5792 83.1362 16.6086 88.2326 11.5045C90.3728 9.35323 91.7775 7.37569 90.3328 4.46285L89.7977 3.4073L90.8945 3.9952C93.8373 6.38693 91.6705 10.6092 89.8111 12.8941C85.1294 18.6797 74.7762 24.9196 62.7776 30.2242C62.8043 30.7319 62.8177 31.2129 62.831 31.6672C62.9113 34.5667 62.9781 36.7847 62.4163 39.6575ZM60.1291 26.5764V26.5363C59.5539 23.1692 57.1192 7.91016 51.7954 9.8476C45.5486 12.1324 38.5527 27.1109 33.0416 21.9132C30.4199 19.4413 30.9818 13.2682 30.9818 9.88766C30.9818 9.40664 31.0086 8.79202 30.8748 8.28428C25.6045 9.08598 12.9505 23.0623 9.94079 27.4315C8.99107 28.8078 5.76739 33.6581 7.29229 35.1412C11.0511 38.7756 27.2767 35.9028 32.1591 34.8874C39.0345 33.4577 49.7089 30.4513 60.1291 26.5764ZM30.7679 8.01704C30.7679 8.01704 30.7544 8.00369 30.7544 7.99033H30.7409C30.7409 8.00369 30.7545 8.01704 30.7679 8.01704ZM35.5566 17.9581C35.5299 17.9715 35.5165 17.9715 35.5032 17.9715C35.5165 17.9715 35.5299 17.9715 35.5566 17.9581Z" fill="#35D298"/>
<path d="M68.0121 43.0684V33.6006H76.9809L75.7367 34.8311H69.4613V37.6475H76.6459L75.6957 38.8779H69.4613V43.0684H68.0121ZM92.9305 43.0684L91.823 41.0996H84.4197L83.3055 43.0684H81.6785L87.0447 33.6006H89.1775L94.5301 43.0684H92.9305ZM91.1531 39.8691L88.323 34.8311H87.9676L85.0965 39.8691H91.1531ZM100.185 40.0127H101.6C101.6 40.1631 101.602 40.2542 101.607 40.2861C101.616 40.8057 101.65 41.1497 101.709 41.3184C101.773 41.4824 101.905 41.6077 102.106 41.6943C102.434 41.8356 103.548 41.9062 105.448 41.9062C106.829 41.9062 107.818 41.8379 108.415 41.7012C108.962 41.5827 109.236 41.1429 109.236 40.3818C109.236 39.9854 109.19 39.6937 109.099 39.5068C109.012 39.3154 108.869 39.1833 108.668 39.1104C108.44 39.0329 108.121 38.9873 107.711 38.9736C107.301 38.96 105.945 38.9531 103.644 38.9531C102.855 38.9531 102.22 38.8802 101.737 38.7344C101.253 38.584 100.882 38.3424 100.622 38.0098C100.317 37.627 100.164 37.0505 100.164 36.2803C100.164 35.4235 100.408 34.7992 100.896 34.4072C101.133 34.2113 101.395 34.0632 101.682 33.9629C101.974 33.8626 102.375 33.7829 102.885 33.7236C103.714 33.6234 104.699 33.5732 105.838 33.5732C106.9 33.5732 107.725 33.6279 108.313 33.7373C108.901 33.8467 109.361 34.0381 109.694 34.3115C109.972 34.5348 110.161 34.7946 110.261 35.0908C110.361 35.3825 110.416 35.8519 110.425 36.499H108.976C108.976 36.3805 108.976 36.3099 108.976 36.2871C108.976 35.8405 108.928 35.542 108.832 35.3916C108.7 35.1729 108.399 35.0133 107.93 34.9131C107.46 34.8128 106.745 34.7627 105.783 34.7627C104.58 34.7627 103.685 34.8083 103.097 34.8994C102.514 34.986 102.122 35.125 101.921 35.3164C101.734 35.5078 101.641 35.8291 101.641 36.2803C101.641 36.695 101.686 36.9844 101.778 37.1484C101.873 37.3125 102.053 37.4355 102.318 37.5176C102.728 37.6497 103.53 37.7204 104.724 37.7295C105.134 37.734 106.148 37.7386 107.766 37.7432C108.449 37.7477 108.978 37.8161 109.352 37.9482C109.73 38.0758 110.038 38.2969 110.275 38.6113C110.566 39.0033 110.712 39.5592 110.712 40.2793C110.712 40.9674 110.594 41.5098 110.357 41.9062C110.065 42.3848 109.532 42.7038 108.757 42.8633C107.982 43.0228 106.613 43.1025 104.649 43.1025C103.61 43.1025 102.839 43.0706 102.338 43.0068C101.837 42.943 101.436 42.8268 101.135 42.6582C100.77 42.4486 100.52 42.1888 100.383 41.8789C100.246 41.5645 100.178 41.1042 100.178 40.498C100.178 40.4707 100.18 40.3089 100.185 40.0127ZM116.736 33.6006H127.544V34.8311H122.875V43.0684H121.425V34.8311H116.736V33.6006ZM142.98 43.0684L141.873 41.0996H134.47L133.355 43.0684H131.729L137.095 33.6006H139.228L144.58 43.0684H142.98ZM141.203 39.8691L138.373 34.8311H138.018L135.146 39.8691H141.203ZM150.741 43.0684V33.6006H157.283C158.718 33.6006 159.73 33.6598 160.318 33.7783C161.047 33.9287 161.601 34.3161 161.979 34.9404C162.17 35.2503 162.305 35.665 162.382 36.1846C162.46 36.6995 162.498 37.415 162.498 38.3311C162.498 39.4795 162.396 40.391 162.191 41.0654C161.863 42.1227 161.156 42.7448 160.072 42.9316C159.529 43.0228 158.632 43.0684 157.378 43.0684H150.741ZM152.19 41.8379H157.324C158.217 41.8379 158.768 41.8333 158.978 41.8242C159.192 41.8105 159.425 41.7741 159.675 41.7148C160.149 41.6009 160.491 41.2819 160.701 40.7578C160.915 40.2292 161.022 39.402 161.022 38.2764C161.022 36.818 160.837 35.861 160.468 35.4053C160.336 35.2412 160.161 35.1182 159.942 35.0361C159.728 34.9541 159.425 34.8949 159.033 34.8584C158.8 34.8402 158.21 34.8311 157.262 34.8311H152.19V41.8379ZM169.315 33.6006H171.974L176.971 41.4072L181.887 33.6006H184.559V43.0684H183.11V34.8926H182.762L177.553 43.0684H176.404L171.14 34.8926H170.764V43.0684H169.315V33.6006ZM191.554 33.6006H193.003V43.0684H191.554V33.6006ZM199.998 33.6006H202.226L210.402 41.7832H210.532V33.6006H211.981V43.0684H209.718L201.563 34.9062H201.447V43.0684H199.998V33.6006Z" fill="white"/>
<path fill-rule="evenodd" clip-rule="evenodd" d="M86.5874 2.65899C87.3365 2.65899 87.9247 2.05768 87.9247 1.33615C87.9247 0.614616 87.3365 0 86.5874 0C85.8517 0 85.2497 0.601254 85.2497 1.33615C85.2631 2.05768 85.8517 2.65899 86.5874 2.65899Z" fill="white"/>
</svg>
