<svg width="14" height="14" viewBox="0 0 14 14" fill="none" xmlns="http://www.w3.org/2000/svg">
<path fill-rule="evenodd" clip-rule="evenodd" d="M0 7C0 5.14348 0.737498 3.36301 2.05025 2.05025C3.36301 0.737498 5.14348 0 7 0C8.85652 0 10.637 0.737498 11.9497 2.05025C13.2625 3.36301 14 5.14348 14 7C14 8.85652 13.2625 10.637 11.9497 11.9497C10.637 13.2625 8.85652 14 7 14C5.14348 14 3.36301 13.2625 2.05025 11.9497C0.737498 10.637 0 8.85652 0 7H0Z" fill="black"/>
<path fill-rule="evenodd" clip-rule="evenodd" d="M13 7C13 6.21207 12.8448 5.43185 12.5433 4.7039C12.2417 3.97595 11.7998 3.31451 11.2426 2.75736C10.6855 2.20021 10.0241 1.75825 9.2961 1.45672C8.56815 1.15519 7.78793 1 7 1C6.21207 1 5.43185 1.15519 4.7039 1.45672C3.97595 1.75825 3.31451 2.20021 2.75736 2.75736C2.20021 3.31451 1.75825 3.97595 1.45672 4.7039C1.15519 5.43185 1 6.21207 1 7C1 8.5913 1.63214 10.1174 2.75736 11.2426C3.88258 12.3679 5.4087 13 7 13C8.5913 13 10.1174 12.3679 11.2426 11.2426C12.3679 10.1174 13 8.5913 13 7Z" fill="white"/>
<path fill-rule="evenodd" clip-rule="evenodd" d="M7.0002 3C9.2002 3 11.0002 4.8 11.0002 7C11.0002 9.2 9.2002 11 7.0002 11C5.7002 11 4.5002 10.3 3.7002 9.3L7.0002 7V3Z" fill="black"/>
</svg>
