<svg width="18" height="18" viewBox="0 0 18 18" fill="none" xmlns="http://www.w3.org/2000/svg">
<path d="M9.9449 2.25066C6.1274 2.14566 2.9999 5.21316 2.9999 9.00066H1.6574C1.3199 9.00066 1.1549 9.40566 1.3949 9.63816L3.4874 11.7382C3.6374 11.8882 3.8699 11.8882 4.0199 11.7382L6.1124 9.63816C6.3449 9.40566 6.1799 9.00066 5.8424 9.00066H4.4999C4.4999 6.07566 6.8849 3.71316 9.8249 3.75066C12.6149 3.78816 14.9624 6.13566 14.9999 8.92566C15.0374 11.8582 12.6749 14.2507 9.7499 14.2507C8.5424 14.2507 7.4249 13.8382 6.5399 13.1407C6.2399 12.9082 5.8199 12.9307 5.5499 13.2007C5.2349 13.5157 5.2574 14.0482 5.6099 14.3182C6.7499 15.2182 8.1824 15.7507 9.7499 15.7507C13.5374 15.7507 16.6049 12.6232 16.4999 8.80566C16.4024 5.28816 13.4624 2.34816 9.9449 2.25066ZM9.5624 6.00066C9.2549 6.00066 8.9999 6.25566 8.9999 6.56316V9.32316C8.9999 9.58566 9.1424 9.83316 9.3674 9.96816L11.7074 11.3557C11.9774 11.5132 12.3224 11.4232 12.4799 11.1607C12.6374 10.8907 12.5474 10.5457 12.2849 10.3882L10.1249 9.10567V6.55566C10.1249 6.25566 9.8699 6.00066 9.5624 6.00066Z" fill="black"/>
</svg>
