<svg width="18" height="18" viewBox="0 0 18 18" fill="none" xmlns="http://www.w3.org/2000/svg">
<path fill-rule="evenodd" clip-rule="evenodd" d="M12.9473 1.63214C13.1934 1.3862 13.5271 1.24805 13.875 1.24805C14.2229 1.24805 14.5566 1.3862 14.8028 1.63214L16.7423 3.57164C16.9882 3.81776 17.1264 4.15146 17.1264 4.49939C17.1264 4.84733 16.9882 5.18103 16.7423 5.42714L14.6475 7.52189L14.6385 7.53164L6.51751 15.2829C6.36914 15.4247 6.18959 15.5298 5.99326 15.5896L1.85101 16.8496C1.75358 16.8791 1.64999 16.8816 1.55127 16.8568C1.45255 16.832 1.36239 16.7809 1.29042 16.709C1.21845 16.637 1.16736 16.5469 1.14259 16.4481C1.11781 16.3494 1.12029 16.2458 1.14976 16.1484L2.40451 12.0234C2.47031 11.8075 2.59069 11.6122 2.75401 11.4564L10.857 3.72164L12.9473 1.63214ZM11.241 4.91039L3.53101 12.2701C3.50756 12.2924 3.49025 12.3203 3.48076 12.3511L2.53276 15.4666L5.66551 14.5134C5.69363 14.5047 5.71932 14.4896 5.74051 14.4691L13.4453 7.11464L11.2403 4.91039H11.241ZM14.25 6.32939L15.9473 4.63289C15.9647 4.61547 15.9786 4.59478 15.988 4.572C15.9975 4.54922 16.0023 4.5248 16.0023 4.50014C16.0023 4.47548 15.9975 4.45106 15.988 4.42828C15.9786 4.4055 15.9647 4.38481 15.9473 4.36739L14.0078 2.42789C13.9903 2.41043 13.9696 2.39658 13.9469 2.38712C13.9241 2.37767 13.8997 2.37281 13.875 2.37281C13.8503 2.37281 13.8259 2.37767 13.8031 2.38712C13.7804 2.39658 13.7597 2.41043 13.7423 2.42789L12.0458 4.12439L14.25 6.32939Z" fill="white"/>
</svg>
