<svg width="18" height="18" viewBox="0 0 18 18" fill="none" xmlns="http://www.w3.org/2000/svg">
<path d="M13.2002 0V4.79978H18L13.2002 0Z" fill="#878787"/>
<path d="M5.98374 17.2548L5.06458 13.5674C5.63816 13.0214 6.00054 12.2534 6.00054 11.4003C6.00054 9.74673 4.6542 8.40039 3.00068 8.40039C1.34716 8.40039 0.000826735 9.74673 0.000826735 11.4003C0.000826735 12.2534 0.363209 13.0214 0.936782 13.5674L0.0176259 17.2548C-0.0387714 17.4816 0.0428247 17.7216 0.225216 17.8692C0.407607 18.0156 0.659595 18.0408 0.868385 17.9376L3.00068 16.8708L5.13178 17.9376C5.21698 17.9784 5.30937 18 5.40057 18C5.53376 18 5.66696 17.9556 5.77615 17.8692C5.95854 17.7216 6.04014 17.4828 5.98374 17.2548ZM3.00068 13.2002C2.00833 13.2002 1.20077 12.3926 1.20077 11.4003C1.20077 10.4079 2.00833 9.60034 3.00068 9.60034C3.99304 9.60034 4.8006 10.4079 4.8006 11.4003C4.8006 12.3926 3.99304 13.2002 3.00068 13.2002Z" fill="#878787"/>
<path d="M13.2002 5.99972C12.539 5.99972 12.0003 5.46094 12.0003 4.79977V0H4.8006C4.13943 0 3.60066 0.538775 3.60066 1.19994V7.26086C5.63097 7.55484 7.20049 9.28876 7.20049 11.3995C7.20049 12.3066 6.91251 13.1682 6.37973 13.8845L7.1069 16.7992H16.8001C17.4624 16.7992 18 16.2616 18 15.5993V5.99972H13.2002ZM6.60052 4.79977C6.26934 4.79977 6.00055 4.53099 6.00055 4.1998C6.00055 3.86862 6.26934 3.59983 6.60052 3.59983H10.2004C10.5315 3.59983 10.8003 3.86862 10.8003 4.1998C10.8003 4.53099 10.5315 4.79977 10.2004 4.79977H6.60052ZM15.0001 11.9994H9.00041C8.66923 11.9994 8.40044 11.7306 8.40044 11.3995C8.40044 11.0683 8.66923 10.7995 9.00041 10.7995H15.0001C15.3313 10.7995 15.6001 11.0683 15.6001 11.3995C15.6001 11.7306 15.3313 11.9994 15.0001 11.9994ZM15.0001 8.3996H7.80047C7.46928 8.3996 7.20049 8.13082 7.20049 7.79963C7.20049 7.46845 7.46928 7.19966 7.80047 7.19966H15.0001C15.3313 7.19966 15.6001 7.46845 15.6001 7.79963C15.6001 8.13082 15.3313 8.3996 15.0001 8.3996Z" fill="#878787"/>
</svg>
