<svg width="18" height="18" viewBox="0 0 18 18" fill="none" xmlns="http://www.w3.org/2000/svg">
<path d="M9.00003 0.750001C7.08684 0.749354 5.22326 1.35865 3.67998 2.4894C2.13669 3.62014 0.994079 5.21344 0.418101 7.03787C-0.157878 8.86231 -0.137225 10.8229 0.477059 12.6347C1.09134 14.4466 2.26727 16.0155 3.83403 17.1135L4.02828 17.25H13.9718L14.166 17.1135C15.7328 16.0155 16.9087 14.4466 17.523 12.6347C18.1373 10.8229 18.1579 8.86231 17.582 7.03787C17.006 5.21344 15.8634 3.62014 14.3201 2.4894C12.7768 1.35865 10.9132 0.749354 9.00003 0.750001ZM4.54503 14.8132C3.31792 13.74 2.52139 12.2584 2.30297 10.6428C2.08455 9.02728 2.45906 7.38733 3.35711 6.02675C4.25516 4.66617 5.61589 3.67718 7.18724 3.24298C8.75859 2.80878 10.4341 2.9588 11.9033 3.66525L10.7588 4.80975C10.1948 4.60589 9.59975 4.5011 9.00003 4.5C7.93309 4.49878 6.89116 4.82303 6.01333 5.42948C5.1355 6.03593 4.46354 6.89571 4.08716 7.89406C3.71077 8.89241 3.64786 9.98181 3.90684 11.0168C4.16581 12.0519 4.73434 12.9833 5.53653 13.6867L4.54503 14.8132ZM9.00003 11.25C8.78502 11.2528 8.57191 11.2094 8.37515 11.1227C8.17839 11.0359 8.00258 10.9079 7.85964 10.7472C7.7167 10.5866 7.60997 10.3971 7.54668 10.1916C7.48339 9.98609 7.46503 9.76938 7.49284 9.55615C7.52065 9.34293 7.59397 9.13817 7.70785 8.95577C7.82172 8.77337 7.97348 8.61758 8.15284 8.49897C8.3322 8.38036 8.53497 8.30169 8.74739 8.26831C8.95982 8.23493 9.17694 8.24762 9.38403 8.3055L12.9698 4.71975L14.0303 5.78025L10.4445 9.366C10.5071 9.58783 10.517 9.82118 10.4735 10.0475C10.4301 10.2739 10.3345 10.4869 10.1942 10.6698C10.054 10.8527 9.87303 11.0004 9.66573 11.1011C9.45842 11.2018 9.23049 11.2528 9.00003 11.25ZM13.455 14.8132L12.4635 13.6882C13.2551 12.9984 13.8197 12.0854 14.0833 11.069C14.3468 10.0526 14.297 8.98031 13.9403 7.99275L15.0848 6.84825C15.722 8.17132 15.9077 9.6669 15.6133 11.1056C15.3189 12.5444 14.5607 13.8468 13.455 14.8132Z" fill="#878787"/>
</svg>
