<svg width="18" height="18" viewBox="0 0 18 18" fill="none" xmlns="http://www.w3.org/2000/svg">
<path d="M9 12.375C8.33249 12.375 7.67997 12.1771 7.12495 11.8062C6.56994 11.4354 6.13735 10.9083 5.88191 10.2916C5.62646 9.67486 5.55963 8.99626 5.68985 8.34157C5.82008 7.68689 6.14151 7.08552 6.61352 6.61352C7.08552 6.14151 7.68689 5.82008 8.34157 5.68985C8.99626 5.55963 9.67486 5.62646 10.2916 5.88191C10.9083 6.13735 11.4354 6.56994 11.8062 7.12495C12.1771 7.67997 12.375 8.33249 12.375 9C12.3798 9.44454 12.2958 9.88557 12.1278 10.2972C11.9599 10.7088 11.7115 11.0828 11.3972 11.3972C11.0828 11.7115 10.7088 11.9599 10.2972 12.1278C9.88557 12.2958 9.44454 12.3798 9 12.375ZM9 6.75C8.70268 6.74326 8.40708 6.79685 8.13105 6.90753C7.85502 7.01822 7.60429 7.18371 7.394 7.394C7.18371 7.60429 7.01822 7.85502 6.90753 8.13105C6.79685 8.40708 6.74326 8.70268 6.75 9C6.74326 9.29732 6.79685 9.59292 6.90753 9.86895C7.01822 10.145 7.18371 10.3957 7.394 10.606C7.60429 10.8163 7.85502 10.9818 8.13105 11.0925C8.40708 11.2032 8.70268 11.2567 9 11.25C9.29732 11.2567 9.59292 11.2032 9.86895 11.0925C10.145 10.9818 10.3957 10.8163 10.606 10.606C10.8163 10.3957 10.9818 10.145 11.0925 9.86895C11.2032 9.59292 11.2567 9.29732 11.25 9C11.2567 8.70268 11.2032 8.40708 11.0925 8.13105C10.9818 7.85502 10.8163 7.60429 10.606 7.394C10.3957 7.18371 10.145 7.01822 9.86895 6.90753C9.59292 6.79685 9.29732 6.74326 9 6.75Z" fill="white"/>
<path d="M16.4839 6.21225L15.1561 3.91286C15.0262 3.68747 14.8222 3.5141 14.5788 3.42233C14.3354 3.33056 14.0677 3.32608 13.8214 3.40965L12.4522 3.87276C12.2163 3.71384 11.9697 3.57133 11.7142 3.44621L11.4309 2.0295C11.3799 1.77442 11.2421 1.54489 11.0409 1.37998C10.8397 1.21507 10.5876 1.12496 10.3275 1.125H7.67252C7.4124 1.12496 7.1603 1.21507 6.95913 1.37998C6.75797 1.54489 6.62016 1.77442 6.56918 2.0295L6.28585 3.44621C6.02756 3.56998 5.7782 3.71158 5.53958 3.87L4.17867 3.40965C3.93233 3.32608 3.66464 3.33056 3.42124 3.42233C3.17784 3.5141 2.97382 3.68747 2.84397 3.91286L1.51613 6.21225C1.38614 6.43751 1.33818 6.70085 1.38042 6.95748C1.42266 7.21411 1.55249 7.44819 1.74782 7.61991L2.83396 8.57436C2.82434 8.71577 2.81252 8.85639 2.81252 9C2.81252 9.14501 2.81815 9.28839 2.82816 9.43065L1.74782 10.3801C1.55249 10.5519 1.42266 10.7859 1.38042 11.0426C1.33818 11.2992 1.38614 11.5625 1.51613 11.7878L2.84397 14.0873C2.97382 14.3126 3.17784 14.486 3.42124 14.5778C3.66464 14.6695 3.93233 14.674 4.17867 14.5905L5.54785 14.1274C5.78373 14.2864 6.03031 14.4289 6.28585 14.5539L6.56918 15.9706C6.62019 16.2257 6.758 16.4552 6.95917 16.6201C7.16033 16.785 7.41242 16.875 7.67252 16.875H10.125V15.75H7.67252L7.27315 13.7527C6.72074 13.5475 6.20793 13.2485 5.75732 12.8688L3.81816 13.5248L2.49066 11.2254L4.02364 9.87812C3.91878 9.29644 3.91745 8.70082 4.01971 8.11867L2.49049 6.77475L3.81861 4.47536L5.74613 5.12736C6.19987 4.74733 6.71654 4.44952 7.27281 4.24738L7.67252 2.25H10.3275L10.7269 4.24732C11.2793 4.45248 11.7921 4.75149 12.2427 5.13118L14.1815 4.47531L15.5091 6.77469L13.9353 8.15406L14.6769 9L16.2519 7.61985C16.4473 7.44817 16.5772 7.21412 16.6195 6.9575C16.6618 6.70089 16.6139 6.43754 16.4839 6.21225Z" fill="white"/>
<path d="M12.9375 14.7264L11.4806 13.2695L10.6875 14.0627L12.9375 16.3127L16.875 12.3752L16.0819 11.582L12.9375 14.7264Z" fill="white"/>
</svg>
